<?xml version="1.0" encoding="UTF-8"?>
<!-- Do not edit this file with editors other than draw.io -->
<!DOCTYPE svg PUBLIC "-//W3C//DTD SVG 1.1//EN" "http://www.w3.org/Graphics/SVG/1.1/DTD/svg11.dtd">
<svg xmlns="http://www.w3.org/2000/svg" xmlns:xlink="http://www.w3.org/1999/xlink" version="1.1" width="457px" height="113px" viewBox="-0.5 -0.5 457 113" content="&lt;mxfile host=&quot;Electron&quot; agent=&quot;Mozilla/5.0 (X11; Linux x86_64) AppleWebKit/537.36 (KHTML, like Gecko) draw.io/24.7.17 Chrome/128.0.6613.36 Electron/32.0.1 Safari/537.36&quot; scale=&quot;1&quot; border=&quot;10&quot; version=&quot;24.7.17&quot;&gt;&#10;  &lt;diagram name=&quot;Page-1&quot; id=&quot;RIGGKDiUvc95nNy2ftEA&quot;&gt;&#10;    &lt;mxGraphModel dx=&quot;1434&quot; dy=&quot;835&quot; grid=&quot;1&quot; gridSize=&quot;10&quot; guides=&quot;1&quot; tooltips=&quot;1&quot; connect=&quot;1&quot; arrows=&quot;1&quot; fold=&quot;1&quot; page=&quot;1&quot; pageScale=&quot;1&quot; pageWidth=&quot;850&quot; pageHeight=&quot;1100&quot; background=&quot;#ffffff&quot; math=&quot;0&quot; shadow=&quot;0&quot;&gt;&#10;      &lt;root&gt;&#10;        &lt;mxCell id=&quot;0&quot; /&gt;&#10;        &lt;mxCell id=&quot;1&quot; parent=&quot;0&quot; /&gt;&#10;        &lt;mxCell id=&quot;JewrVXTKYehWs0iT4YNP-19&quot; style=&quot;edgeStyle=orthogonalEdgeStyle;rounded=0;orthogonalLoop=1;jettySize=auto;html=1;endArrow=none;startFill=0;fontFamily=Noto Mono;&quot; parent=&quot;1&quot; source=&quot;JewrVXTKYehWs0iT4YNP-5&quot; target=&quot;JewrVXTKYehWs0iT4YNP-6&quot; edge=&quot;1&quot;&gt;&#10;          &lt;mxGeometry relative=&quot;1&quot; as=&quot;geometry&quot; /&gt;&#10;        &lt;/mxCell&gt;&#10;        &lt;mxCell id=&quot;JewrVXTKYehWs0iT4YNP-5&quot; value=&quot;C1&quot; style=&quot;verticalAlign=bottom;verticalLabelPosition=top;labelPosition=center;align=center;html=1;outlineConnect=0;fillColor=#bac8d3;strokeColor=#23445d;gradientDirection=north;strokeWidth=2;shape=mxgraph.networks.pc;fontFamily=Noto Mono;fontStyle=1;labelBackgroundColor=none;fontSize=16;container=0;&quot; parent=&quot;1&quot; vertex=&quot;1&quot;&gt;&#10;          &lt;mxGeometry x=&quot;150&quot; y=&quot;261&quot; width=&quot;100&quot; height=&quot;70&quot; as=&quot;geometry&quot; /&gt;&#10;        &lt;/mxCell&gt;&#10;        &lt;mxCell id=&quot;JewrVXTKYehWs0iT4YNP-6&quot; value=&quot;C2&quot; style=&quot;verticalAlign=bottom;verticalLabelPosition=top;labelPosition=center;align=center;html=1;outlineConnect=0;fillColor=#bac8d3;strokeColor=#23445d;gradientDirection=north;strokeWidth=2;shape=mxgraph.networks.pc;fontFamily=Noto Mono;fontStyle=1;labelBackgroundColor=none;fontSize=16;container=0;&quot; parent=&quot;1&quot; vertex=&quot;1&quot;&gt;&#10;          &lt;mxGeometry x=&quot;485&quot; y=&quot;261&quot; width=&quot;100&quot; height=&quot;70&quot; as=&quot;geometry&quot; /&gt;&#10;        &lt;/mxCell&gt;&#10;        &lt;mxCell id=&quot;JewrVXTKYehWs0iT4YNP-13&quot; value=&quot;192.168.0.0/24&quot; style=&quot;text;html=1;align=center;verticalAlign=middle;whiteSpace=wrap;rounded=0;fontFamily=Noto Mono;fontSize=14;container=0;labelBackgroundColor=none;&quot; parent=&quot;1&quot; vertex=&quot;1&quot;&gt;&#10;          &lt;mxGeometry x=&quot;250&quot; y=&quot;261&quot; width=&quot;230&quot; height=&quot;30&quot; as=&quot;geometry&quot; /&gt;&#10;        &lt;/mxCell&gt;&#10;        &lt;mxCell id=&quot;JewrVXTKYehWs0iT4YNP-21&quot; value=&quot;.1&quot; style=&quot;text;html=1;align=center;verticalAlign=middle;whiteSpace=wrap;rounded=0;fontFamily=Noto Mono;fontSize=14;container=0;&quot; parent=&quot;1&quot; vertex=&quot;1&quot;&gt;&#10;          &lt;mxGeometry x=&quot;250&quot; y=&quot;301&quot; width=&quot;30&quot; height=&quot;30&quot; as=&quot;geometry&quot; /&gt;&#10;        &lt;/mxCell&gt;&#10;        &lt;mxCell id=&quot;JewrVXTKYehWs0iT4YNP-22&quot; value=&quot;.2&quot; style=&quot;text;html=1;align=center;verticalAlign=middle;whiteSpace=wrap;rounded=0;fontFamily=Noto Mono;fontSize=14;container=0;&quot; parent=&quot;1&quot; vertex=&quot;1&quot;&gt;&#10;          &lt;mxGeometry x=&quot;455&quot; y=&quot;301&quot; width=&quot;30&quot; height=&quot;30&quot; as=&quot;geometry&quot; /&gt;&#10;        &lt;/mxCell&gt;&#10;        &lt;mxCell id=&quot;JewrVXTKYehWs0iT4YNP-23&quot; value=&quot;&quot; style=&quot;verticalAlign=bottom;verticalLabelPosition=top;labelPosition=center;align=center;html=1;outlineConnect=0;fillColor=#FF0000;strokeColor=#4D4D4D;gradientDirection=north;strokeWidth=2;shape=mxgraph.networks.firewall;fontFamily=Noto Mono;fontStyle=1;labelBackgroundColor=none;fontSize=16;container=0;&quot; parent=&quot;1&quot; vertex=&quot;1&quot;&gt;&#10;          &lt;mxGeometry x=&quot;193&quot; y=&quot;273&quot; width=&quot;32&quot; height=&quot;32&quot; as=&quot;geometry&quot; /&gt;&#10;        &lt;/mxCell&gt;&#10;      &lt;/root&gt;&#10;    &lt;/mxGraphModel&gt;&#10;  &lt;/diagram&gt;&#10;&lt;/mxfile&gt;&#10;" style="background-color: rgb(255, 255, 255);"><defs/><rect fill="#ffffff" width="100%" height="100%" x="0" y="0"/><g><g data-cell-id="0"><g data-cell-id="1"><g data-cell-id="JewrVXTKYehWs0iT4YNP-19"><g><path d="M 111 67 L 346 67" fill="none" stroke="rgb(0, 0, 0)" stroke-miterlimit="10" pointer-events="stroke"/></g></g><g data-cell-id="JewrVXTKYehWs0iT4YNP-5"><g><rect x="11" y="32" width="30" height="60" rx="2" ry="2" fill="#bac8d3" stroke="#23445d" stroke-width="2" pointer-events="all"/><path d="M 11 42 L 41 42 M 11 62 L 41 62" fill="none" stroke="#23445d" stroke-width="2" stroke-linejoin="round" stroke-miterlimit="10" pointer-events="all"/><rect x="31" y="37" width="80" height="45" fill="#bac8d3" stroke="#23445d" stroke-width="2" pointer-events="all"/><rect x="61" y="82" width="20" height="10" fill="#bac8d3" stroke="#23445d" stroke-width="2" pointer-events="all"/><path d="M 46 91 L 96 91 L 106 102 L 36 102 Z" fill="#bac8d3" stroke="#23445d" stroke-width="2" stroke-linejoin="round" stroke-miterlimit="10" pointer-events="all"/><path d="M 60 99.5 L 78 99.5 M 47 96.5 L 86 96.5 M 49 93.5 L 85 93.5 M 88 93.5 L 95 93.5 M 90 96.5 L 97 96.5 M 92 99.5 L 99 99.5" fill="none" stroke="#23445d" stroke-width="2" stroke-linejoin="round" stroke-miterlimit="10" pointer-events="all"/><rect x="34" y="40" width="73" height="39" fill="#ffffff" stroke="none" pointer-events="all"/><ellipse cx="16" cy="67" rx="2" ry="2" fill="#ffffff" stroke="none" pointer-events="all"/></g><g><g transform="translate(-0.5 -0.5)"><switch><foreignObject pointer-events="none" width="100%" height="100%" requiredFeatures="http://www.w3.org/TR/SVG11/feature#Extensibility" style="overflow: visible; text-align: left;"><div xmlns="http://www.w3.org/1999/xhtml" style="display: flex; align-items: unsafe flex-end; justify-content: unsafe center; width: 1px; height: 1px; padding-top: 29px; margin-left: 61px;"><div data-drawio-colors="color: rgb(0, 0, 0); " style="box-sizing: border-box; font-size: 0px; text-align: center;"><div style="display: inline-block; font-size: 16px; font-family: &quot;Noto Mono&quot;; color: rgb(0, 0, 0); line-height: 1.2; pointer-events: all; font-weight: bold; white-space: nowrap;">C1</div></div></div></foreignObject><text x="61" y="29" fill="rgb(0, 0, 0)" font-family="&quot;Noto Mono&quot;" font-size="16px" text-anchor="middle" font-weight="bold">C1</text></switch></g></g></g><g data-cell-id="JewrVXTKYehWs0iT4YNP-6"><g><rect x="346" y="32" width="30" height="60" rx="2" ry="2" fill="#bac8d3" stroke="#23445d" stroke-width="2" pointer-events="all"/><path d="M 346 42 L 376 42 M 346 62 L 376 62" fill="none" stroke="#23445d" stroke-width="2" stroke-linejoin="round" stroke-miterlimit="10" pointer-events="all"/><rect x="366" y="37" width="80" height="45" fill="#bac8d3" stroke="#23445d" stroke-width="2" pointer-events="all"/><rect x="396" y="82" width="20" height="10" fill="#bac8d3" stroke="#23445d" stroke-width="2" pointer-events="all"/><path d="M 381 91 L 431 91 L 441 102 L 371 102 Z" fill="#bac8d3" stroke="#23445d" stroke-width="2" stroke-linejoin="round" stroke-miterlimit="10" pointer-events="all"/><path d="M 395 99.5 L 413 99.5 M 382 96.5 L 421 96.5 M 384 93.5 L 420 93.5 M 423 93.5 L 430 93.5 M 425 96.5 L 432 96.5 M 427 99.5 L 434 99.5" fill="none" stroke="#23445d" stroke-width="2" stroke-linejoin="round" stroke-miterlimit="10" pointer-events="all"/><rect x="369" y="40" width="73" height="39" fill="#ffffff" stroke="none" pointer-events="all"/><ellipse cx="351" cy="67" rx="2" ry="2" fill="#ffffff" stroke="none" pointer-events="all"/></g><g><g transform="translate(-0.5 -0.5)"><switch><foreignObject pointer-events="none" width="100%" height="100%" requiredFeatures="http://www.w3.org/TR/SVG11/feature#Extensibility" style="overflow: visible; text-align: left;"><div xmlns="http://www.w3.org/1999/xhtml" style="display: flex; align-items: unsafe flex-end; justify-content: unsafe center; width: 1px; height: 1px; padding-top: 29px; margin-left: 396px;"><div data-drawio-colors="color: rgb(0, 0, 0); " style="box-sizing: border-box; font-size: 0px; text-align: center;"><div style="display: inline-block; font-size: 16px; font-family: &quot;Noto Mono&quot;; color: rgb(0, 0, 0); line-height: 1.2; pointer-events: all; font-weight: bold; white-space: nowrap;">C2</div></div></div></foreignObject><text x="396" y="29" fill="rgb(0, 0, 0)" font-family="&quot;Noto Mono&quot;" font-size="16px" text-anchor="middle" font-weight="bold">C2</text></switch></g></g></g><g data-cell-id="JewrVXTKYehWs0iT4YNP-13"><g><rect x="111" y="32" width="230" height="30" fill="none" stroke="none" pointer-events="all"/></g><g><g transform="translate(-0.5 -0.5)"><switch><foreignObject pointer-events="none" width="100%" height="100%" requiredFeatures="http://www.w3.org/TR/SVG11/feature#Extensibility" style="overflow: visible; text-align: left;"><div xmlns="http://www.w3.org/1999/xhtml" style="display: flex; align-items: unsafe center; justify-content: unsafe center; width: 228px; height: 1px; padding-top: 47px; margin-left: 112px;"><div data-drawio-colors="color: rgb(0, 0, 0); " style="box-sizing: border-box; font-size: 0px; text-align: center;"><div style="display: inline-block; font-size: 14px; font-family: &quot;Noto Mono&quot;; color: rgb(0, 0, 0); line-height: 1.2; pointer-events: all; white-space: normal; overflow-wrap: normal;">192.168.0.0/24</div></div></div></foreignObject><text x="226" y="51" fill="rgb(0, 0, 0)" font-family="&quot;Noto Mono&quot;" font-size="14px" text-anchor="middle">192.168.0.0/24</text></switch></g></g></g><g data-cell-id="JewrVXTKYehWs0iT4YNP-21"><g><rect x="111" y="72" width="30" height="30" fill="none" stroke="none" pointer-events="all"/></g><g><g transform="translate(-0.5 -0.5)"><switch><foreignObject pointer-events="none" width="100%" height="100%" requiredFeatures="http://www.w3.org/TR/SVG11/feature#Extensibility" style="overflow: visible; text-align: left;"><div xmlns="http://www.w3.org/1999/xhtml" style="display: flex; align-items: unsafe center; justify-content: unsafe center; width: 28px; height: 1px; padding-top: 87px; margin-left: 112px;"><div data-drawio-colors="color: rgb(0, 0, 0); " style="box-sizing: border-box; font-size: 0px; text-align: center;"><div style="display: inline-block; font-size: 14px; font-family: &quot;Noto Mono&quot;; color: rgb(0, 0, 0); line-height: 1.2; pointer-events: all; white-space: normal; overflow-wrap: normal;">.1</div></div></div></foreignObject><text x="126" y="91" fill="rgb(0, 0, 0)" font-family="&quot;Noto Mono&quot;" font-size="14px" text-anchor="middle">.1</text></switch></g></g></g><g data-cell-id="JewrVXTKYehWs0iT4YNP-22"><g><rect x="316" y="72" width="30" height="30" fill="none" stroke="none" pointer-events="all"/></g><g><g transform="translate(-0.5 -0.5)"><switch><foreignObject pointer-events="none" width="100%" height="100%" requiredFeatures="http://www.w3.org/TR/SVG11/feature#Extensibility" style="overflow: visible; text-align: left;"><div xmlns="http://www.w3.org/1999/xhtml" style="display: flex; align-items: unsafe center; justify-content: unsafe center; width: 28px; height: 1px; padding-top: 87px; margin-left: 317px;"><div data-drawio-colors="color: rgb(0, 0, 0); " style="box-sizing: border-box; font-size: 0px; text-align: center;"><div style="display: inline-block; font-size: 14px; font-family: &quot;Noto Mono&quot;; color: rgb(0, 0, 0); line-height: 1.2; pointer-events: all; white-space: normal; overflow-wrap: normal;">.2</div></div></div></foreignObject><text x="331" y="91" fill="rgb(0, 0, 0)" font-family="&quot;Noto Mono&quot;" font-size="14px" text-anchor="middle">.2</text></switch></g></g></g><g data-cell-id="JewrVXTKYehWs0iT4YNP-23"><g><rect x="54" y="44" width="3.36" height="2.56" fill="#ff0000" stroke="#4d4d4d" stroke-width="0.64" pointer-events="all"/><rect x="58.26" y="44" width="7.36" height="2.56" fill="#ff0000" stroke="#4d4d4d" stroke-width="0.64" pointer-events="all"/><rect x="66.32" y="44" width="7.36" height="2.56" fill="#ff0000" stroke="#4d4d4d" stroke-width="0.64" pointer-events="all"/><rect x="74.58" y="44" width="7.36" height="2.56" fill="#ff0000" stroke="#4d4d4d" stroke-width="0.64" pointer-events="all"/><rect x="82.64" y="44" width="3.36" height="2.56" fill="#ff0000" stroke="#4d4d4d" stroke-width="0.64" pointer-events="all"/><rect x="54" y="47.28" width="7.36" height="2.56" fill="#ff0000" stroke="#4d4d4d" stroke-width="0.64" pointer-events="all"/><rect x="62.22" y="47.28" width="7.36" height="2.56" fill="#ff0000" stroke="#4d4d4d" stroke-width="0.64" pointer-events="all"/><rect x="70.45" y="47.28" width="7.36" height="2.56" fill="#ff0000" stroke="#4d4d4d" stroke-width="0.64" pointer-events="all"/><rect x="78.64" y="47.28" width="7.36" height="2.56" fill="#ff0000" stroke="#4d4d4d" stroke-width="0.64" pointer-events="all"/><rect x="54" y="50.56" width="3.36" height="2.56" fill="#ff0000" stroke="#4d4d4d" stroke-width="0.64" pointer-events="all"/><rect x="58.26" y="50.56" width="7.36" height="2.56" fill="#ff0000" stroke="#4d4d4d" stroke-width="0.64" pointer-events="all"/><rect x="66.32" y="50.56" width="7.36" height="2.56" fill="#ff0000" stroke="#4d4d4d" stroke-width="0.64" pointer-events="all"/><rect x="74.58" y="50.56" width="7.36" height="2.56" fill="#ff0000" stroke="#4d4d4d" stroke-width="0.64" pointer-events="all"/><rect x="82.64" y="50.56" width="3.36" height="2.56" fill="#ff0000" stroke="#4d4d4d" stroke-width="0.64" pointer-events="all"/><rect x="54" y="53.84" width="7.36" height="2.56" fill="#ff0000" stroke="#4d4d4d" stroke-width="0.64" pointer-events="all"/><rect x="62.22" y="53.84" width="7.36" height="2.56" fill="#ff0000" stroke="#4d4d4d" stroke-width="0.64" pointer-events="all"/><rect x="70.45" y="53.84" width="7.36" height="2.56" fill="#ff0000" stroke="#4d4d4d" stroke-width="0.64" pointer-events="all"/><rect x="78.64" y="53.84" width="7.36" height="2.56" fill="#ff0000" stroke="#4d4d4d" stroke-width="0.64" pointer-events="all"/><rect x="54" y="57.12" width="3.36" height="2.56" fill="#ff0000" stroke="#4d4d4d" stroke-width="0.64" pointer-events="all"/><rect x="58.26" y="57.12" width="7.36" height="2.56" fill="#ff0000" stroke="#4d4d4d" stroke-width="0.64" pointer-events="all"/><rect x="66.48" y="57.12" width="7.36" height="2.56" fill="#ff0000" stroke="#4d4d4d" stroke-width="0.64" pointer-events="all"/><rect x="74.58" y="57.12" width="7.36" height="2.56" fill="#ff0000" stroke="#4d4d4d" stroke-width="0.64" pointer-events="all"/><rect x="82.64" y="57.12" width="3.36" height="2.56" fill="#ff0000" stroke="#4d4d4d" stroke-width="0.64" pointer-events="all"/><rect x="54" y="60.48" width="7.36" height="2.56" fill="#ff0000" stroke="#4d4d4d" stroke-width="0.64" pointer-events="all"/><rect x="62.22" y="60.48" width="7.36" height="2.56" fill="#ff0000" stroke="#4d4d4d" stroke-width="0.64" pointer-events="all"/><rect x="70.45" y="60.48" width="7.36" height="2.56" fill="#ff0000" stroke="#4d4d4d" stroke-width="0.64" pointer-events="all"/><rect x="78.64" y="60.48" width="7.36" height="2.56" fill="#ff0000" stroke="#4d4d4d" stroke-width="0.64" pointer-events="all"/><rect x="54" y="63.76" width="3.36" height="2.56" fill="#ff0000" stroke="#4d4d4d" stroke-width="0.64" pointer-events="all"/><rect x="58.26" y="63.76" width="7.36" height="2.56" fill="#ff0000" stroke="#4d4d4d" stroke-width="0.64" pointer-events="all"/><rect x="66.48" y="63.76" width="7.36" height="2.56" fill="#ff0000" stroke="#4d4d4d" stroke-width="0.64" pointer-events="all"/><rect x="74.58" y="63.76" width="7.36" height="2.56" fill="#ff0000" stroke="#4d4d4d" stroke-width="0.64" pointer-events="all"/><rect x="82.64" y="63.76" width="3.36" height="2.56" fill="#ff0000" stroke="#4d4d4d" stroke-width="0.64" pointer-events="all"/><rect x="54" y="67.04" width="7.36" height="2.56" fill="#ff0000" stroke="#4d4d4d" stroke-width="0.64" pointer-events="all"/><rect x="62.22" y="67.04" width="7.36" height="2.56" fill="#ff0000" stroke="#4d4d4d" stroke-width="0.64" pointer-events="all"/><rect x="70.45" y="67.04" width="7.36" height="2.56" fill="#ff0000" stroke="#4d4d4d" stroke-width="0.64" pointer-events="all"/><rect x="78.64" y="67.04" width="7.36" height="2.56" fill="#ff0000" stroke="#4d4d4d" stroke-width="0.64" pointer-events="all"/><rect x="54" y="70.24" width="3.36" height="2.56" fill="#ff0000" stroke="#4d4d4d" stroke-width="0.64" pointer-events="all"/><rect x="58.26" y="70.24" width="7.36" height="2.56" fill="#ff0000" stroke="#4d4d4d" stroke-width="0.64" pointer-events="all"/><rect x="66.32" y="70.24" width="7.36" height="2.56" fill="#ff0000" stroke="#4d4d4d" stroke-width="0.64" pointer-events="all"/><rect x="74.58" y="70.24" width="7.36" height="2.56" fill="#ff0000" stroke="#4d4d4d" stroke-width="0.64" pointer-events="all"/><rect x="82.64" y="70.24" width="3.36" height="2.56" fill="#ff0000" stroke="#4d4d4d" stroke-width="0.64" pointer-events="all"/><rect x="54" y="73.44" width="7.36" height="2.56" fill="#ff0000" stroke="#4d4d4d" stroke-width="0.64" pointer-events="all"/><rect x="62.22" y="73.44" width="7.36" height="2.56" fill="#ff0000" stroke="#4d4d4d" stroke-width="0.64" pointer-events="all"/><rect x="70.45" y="73.44" width="7.36" height="2.56" fill="#ff0000" stroke="#4d4d4d" stroke-width="0.64" pointer-events="all"/><rect x="78.64" y="73.44" width="7.36" height="2.56" fill="#ff0000" stroke="#4d4d4d" stroke-width="0.64" pointer-events="all"/><path d="M 67.89 70.11 C 68.08 68.72 68.57 67.39 69.33 66.21 C 69.57 65.83 69.78 65.43 69.97 65.02 C 70.2 64.64 70.26 64.17 70.13 63.74 C 70.51 64.12 70.72 64.64 70.7 65.18 C 70.56 66.27 70.69 67.37 71.09 68.38 C 71.49 69.16 72.1 69.82 72.85 70.27 C 74.48 69.91 75.96 69.05 77.07 67.81 C 78.15 66.56 78.51 64.84 78.03 63.26 C 77.49 61.7 76.76 60.21 75.86 58.82 C 75.33 58.05 75.05 57.15 75.02 56.22 C 75.13 55.82 75.4 55.48 75.76 55.26 C 75.22 55.25 74.7 55.43 74.29 55.78 C 73.44 56.62 72.94 57.75 72.88 58.94 C 72.55 58.03 72.51 57.04 72.75 56.1 C 73.06 54.84 72.92 53.51 72.34 52.35 C 71.94 51.75 71.47 51.2 70.93 50.72 C 70.48 50.36 70.1 49.93 69.81 49.44 C 69.74 50.05 69.8 50.67 69.97 51.26 C 70.2 52.21 70.06 53.2 69.58 54.05 C 69.26 54.58 68.91 55.09 68.53 55.58 C 67.99 56.39 67.64 57.31 67.5 58.27 C 67.37 57.17 67.05 56.1 66.54 55.1 C 66.07 54.15 65.37 53.32 64.5 52.7 C 64.87 53.64 65.03 54.65 64.94 55.65 C 64.83 56.5 64.61 57.34 64.3 58.14 C 63.54 59.72 63.05 61.4 62.83 63.14 C 62.69 64.85 63.25 66.54 64.37 67.84 C 65.28 68.94 66.51 69.73 67.89 70.11 Z" fill="#ffffff" stroke="#4d4d4d" stroke-width="0.64" stroke-miterlimit="10" pointer-events="all"/></g></g></g></g></g><switch><g requiredFeatures="http://www.w3.org/TR/SVG11/feature#Extensibility"/><a transform="translate(0,-5)" xlink:href="https://www.drawio.com/doc/faq/svg-export-text-problems" target="_blank"><text text-anchor="middle" font-size="10px" x="50%" y="100%">Text is not SVG - cannot display</text></a></switch></svg>